HIERARCHY
ROOT Hips
{
	OFFSET 0.00 0.00 0.00
	CHANNELS 6 Xposition Yposition Zposition Xrotation Yrotation Zrotation
	JOINT Spine
	{
		OFFSET 0.00000 1.72418 2.58627
		CHANNELS 3 Xrotation Yrotation Zrotation
		JOINT Spine1
		{
			OFFSET 0.00000 0.59880 3.39597
			CHANNELS 3 Xrotation Yrotation Zrotation
			JOINT Spine2
			{
				OFFSET 0.00000 0.30055 3.43524
				CHANNELS 3 Xrotation Yrotation Zrotation
				JOINT Spine3
				{
					OFFSET 0.00000 0.00000 3.44836
					CHANNELS 3 Xrotation Yrotation Zrotation
					JOINT Neck
					{
						OFFSET 0.00000 -1.29313 9.05195
						CHANNELS 3 Xrotation Yrotation Zrotation
						JOINT Head
						{
							OFFSET 0.00000 -0.82335 4.66946
							CHANNELS 3 Xrotation Yrotation Zrotation
							End Site
							{
								OFFSET 0.00000 0.00001 5.58203
							}
						}
					}
					JOINT RightShoulder
					{
						OFFSET -1.18828 -1.98046 6.41673
						CHANNELS 3 Xrotation Yrotation Zrotation
						JOINT RightArm
						{
							OFFSET -5.90180 0.00000 0.00000
							CHANNELS 3 Xrotation Yrotation Zrotation
							JOINT RightForeArm
							{
								OFFSET -11.45951 0.00000 0.00000
								CHANNELS 3 Xrotation Yrotation Zrotation
								JOINT RightHand
								{
									OFFSET -10.63451 0.00000 0.00000
									CHANNELS 3 Xrotation Yrotation Zrotation
									JOINT RightHandEnd
									{
										OFFSET -2.86944 0.00000 0.00000
										CHANNELS 3 Xrotation Yrotation Zrotation
										End Site
										{
											OFFSET -2.86944 0.00000 0.00000
										}
									}
									JOINT RightHandThumb1
									{
										OFFSET -1.14778 -1.91296 -0.76518
										CHANNELS 3 Yrotation Xrotation Zrotation
										End Site
										{
											OFFSET -2.77167 -0.74267 0.00000
										}
									}
								}
							}
						}
					}
					JOINT LeftShoulder
					{
						OFFSET 1.18828 -1.98046 6.41673
						CHANNELS 3 Xrotation Yrotation Zrotation
						JOINT LeftArm
						{
							OFFSET 5.90180 0.00000 0.00000
							CHANNELS 3 Xrotation Yrotation Zrotation
							JOINT LeftForeArm
							{
								OFFSET 11.45951 0.00000 0.00000
								CHANNELS 3 Xrotation Yrotation Zrotation
								JOINT LeftHand
								{
									OFFSET 10.63451 0.00000 0.00000
									CHANNELS 3 Xrotation Yrotation Zrotation
									JOINT LeftHandEnd
									{
										OFFSET 2.86944 0.00000 0.00000
										CHANNELS 3 Xrotation Yrotation Zrotation
										End Site
										{
											OFFSET 2.86944 0.00000 0.00000
										}
									}
									JOINT LeftHandThumb1
									{
										OFFSET 1.14778 -1.91296 -0.76518
										CHANNELS 3 Yrotation Xrotation Zrotation
										End Site
										{
											OFFSET 2.77167 -0.74267 0.00000
										}
									}
								}
							}
						}
					}
				}
			}
		}
	}
	JOINT RightUpLeg
	{
		OFFSET -3.52524 0.00000 -1.02984
		CHANNELS 3 Xrotation Yrotation Zrotation
		JOINT RightLeg
		{
			OFFSET 0.00001 0.00000 -17.80965
			CHANNELS 3 Xrotation Yrotation Zrotation
			JOINT RightFoot
			{
				OFFSET 0.00001 0.00000 -17.00908
				CHANNELS 3 Xrotation Yrotation Zrotation
				JOINT RightToeBase
				{
					OFFSET 0.00000 -5.55853 -2.02314
					CHANNELS 3 Xrotation Yrotation Zrotation
					End Site
					{
						OFFSET 0.00000 -2.85188 -0.00000
					}
				}
			}
		}
	}
	JOINT LeftUpLeg
	{
		OFFSET 3.52524 0.00000 -1.02984
		CHANNELS 3 Xrotation Yrotation Zrotation
		JOINT LeftLeg
		{
			OFFSET 0.00001 0.00000 -17.80965
			CHANNELS 3 Xrotation Yrotation Zrotation
			JOINT LeftFoot
			{
				OFFSET 0.00001 0.00000 -17.00908
				CHANNELS 3 Xrotation Yrotation Zrotation
				JOINT LeftToeBase
				{
					OFFSET 0.00000 -5.55853 -2.02314
					CHANNELS 3 Xrotation Yrotation Zrotation
					End Site
					{
						OFFSET 0.00000 -2.85188 -0.00000
					}
				}
			}
		}
	}
}
MOTION
Frames: 18
Frame Time: 0.008342
 2.7779 -98.6228 36.4920 -0.5321 1.3643 -177.0297 0.0953 -0.6247 -0.4922 0.1908 0.2445 -0.1023 0.9349 -0.4710 -1.2859 -0.1029 0.2629 -0.1644 -1.7717 -0.0847 -1.5250 -0.8816 0.6730 -1.5180 1.4594 5.7532 -1.4802 -6.0455 -0.4511 0.7743 0.0000 0.0000 13.7112 -11.8619 22.0121 -1.1921 0.0000 -0.0000 0.0000 -0.0000 -0.0000 0.0000 2.0866 -8.6936 1.3291 -7.8750 1.0015 6.3914 -0.0000 -0.0000 -17.6622 -8.9714 -21.6545 -2.1809 0.0000 0.0000 0.0000 0.0000 0.0000 0.0000 -5.4000 2.3310 -24.1278 16.1427 0.0000 0.0000 -14.6133 2.3103 2.5256 0.0147 0.0000 0.0000 -4.5810 -5.7363 15.6786 12.9544 0.0000 0.0000 -8.0430 7.2597 -0.0431 0.4988 0.0000 0.0000
 2.7678 -98.6201 36.4924 -0.5361 1.3509 -177.0020 0.0807 -0.6399 -0.4905 0.1896 0.2343 -0.1032 0.9266 -0.4621 -1.2790 -0.1038 0.2648 -0.1657 -1.7844 -0.0726 -1.5378 -0.8682 0.6767 -1.5399 1.4387 5.7372 -1.4941 -6.0179 -0.4370 0.7558 0.0000 0.0000 13.7195 -11.8176 22.0504 -1.2071 0.0000 0.0000 0.0000 -0.0000 -0.0000 0.0000 2.0752 -8.6722 1.3083 -7.8798 1.0057 6.3452 -0.0000 -0.0000 -17.6550 -8.9719 -21.6630 -2.1924 0.0000 -0.0000 -0.0000 -0.0000 0.0000 0.0000 -5.3769 2.3305 -24.1785 16.1015 0.0000 0.0000 -14.6007 2.2999 2.5522 0.0242 0.0000 0.0000 -4.5968 -5.7276 15.5886 12.9730 0.0000 0.0000 -8.0703 7.2368 0.0106 0.5058 0.0000 0.0000
 2.7546 -98.6164 36.4931 -0.5345 1.3332 -176.9735 0.0699 -0.6602 -0.4878 0.1844 0.2257 -0.1038 0.9191 -0.4579 -1.2696 -0.1052 0.2677 -0.1642 -1.8009 -0.0532 -1.5490 -0.8496 0.6808 -1.5661 1.4130 5.7218 -1.5098 -5.9886 -0.4218 0.7331 0.0000 0.0000 13.7277 -11.7706 22.0928 -1.2265 0.0000 -0.0000 0.0000 -0.0000 -0.0000 -0.0000 2.0636 -8.6428 1.2855 -7.8926 1.0148 6.2858 -0.0000 -0.0000 -17.6508 -8.9718 -21.6789 -2.2076 -0.0000 -0.0000 0.0000 -0.0000 -0.0000 -0.0000 -5.3423 2.3300 -24.2411 16.0530 0.0000 0.0000 -14.5837 2.2847 2.5872 0.0328 0.0000 0.0000 -4.6054 -5.7178 15.4890 12.9925 0.0000 0.0000 -8.1042 7.2085 0.0706 0.5131 0.0000 0.0000
 2.7382 -98.6117 36.4939 -0.5276 1.3133 -176.9469 0.0604 -0.6846 -0.4856 0.1811 0.2154 -0.1031 0.9097 -0.4515 -1.2533 -0.1069 0.2696 -0.1630 -1.8202 -0.0276 -1.5574 -0.8270 0.6844 -1.5950 1.3834 5.7051 -1.5252 -5.9569 -0.4033 0.7065 0.0000 0.0000 13.7349 -11.7248 22.1361 -1.2483 -0.0000 -0.0000 -0.0000 -0.0000 -0.0000 0.0000 2.0495 -8.6070 1.2583 -7.9120 1.0296 6.2203 -0.0000 -0.0000 -17.6541 -8.9676 -21.7010 -2.2247 0.0000 0.0000 0.0000 -0.0000 -0.0000 0.0000 -5.2987 2.3320 -24.3124 16.0014 0.0000 0.0000 -14.5637 2.2650 2.6294 0.0401 0.0000 0.0000 -4.6060 -5.7057 15.3872 13.0116 0.0000 0.0000 -8.1430 7.1763 0.1323 0.5200 0.0000 0.0000
 2.7191 -98.6063 36.4948 -0.5181 1.2901 -176.9245 0.0501 -0.7127 -0.4823 0.1781 0.2036 -0.1045 0.9004 -0.4442 -1.2295 -0.1089 0.2708 -0.1610 -1.8423 0.0033 -1.5612 -0.8015 0.6878 -1.6244 1.3518 5.6877 -1.5391 -5.9233 -0.3825 0.6785 0.0000 0.0000 13.7385 -11.6801 22.1787 -1.2729 0.0000 0.0000 0.0000 0.0000 -0.0000 0.0000 2.0355 -8.5636 1.2305 -7.9398 1.0485 6.1485 -0.0000 -0.0000 -17.6660 -8.9600 -21.7294 -2.2428 0.0000 0.0000 0.0000 0.0000 -0.0000 0.0000 -5.2515 2.3348 -24.3868 15.9496 0.0000 0.0000 -14.5402 2.2413 2.6747 0.0439 0.0000 0.0000 -4.6015 -5.6935 15.2905 13.0308 0.0000 0.0000 -8.1861 7.1417 0.1908 0.5259 0.0000 0.0000
 2.6976 -98.6002 36.4959 -0.5050 1.2653 -176.9083 0.0412 -0.7423 -0.4792 0.1744 0.1913 -0.1046 0.8922 -0.4378 -1.2016 -0.1107 0.2715 -0.1579 -1.8673 0.0387 -1.5600 -0.7741 0.6909 -1.6524 1.3199 5.6719 -1.5503 -5.8913 -0.3619 0.6503 0.0000 0.0000 13.7386 -11.6403 22.2182 -1.2986 -0.0000 0.0000 0.0000 -0.0000 -0.0000 0.0000 2.0223 -8.5140 1.2036 -7.9750 1.0720 6.0746 -0.0000 -0.0000 -17.6880 -8.9488 -21.7629 -2.2616 -0.0000 -0.0000 0.0000 0.0000 -0.0000 0.0000 -5.2009 2.3398 -24.4622 15.9002 0.0000 0.0000 -14.5145 2.2144 2.7228 0.0440 0.0000 0.0000 -4.5893 -5.6810 15.2060 13.0482 0.0000 0.0000 -8.2317 7.1070 0.2414 0.5301 0.0000 0.0000
 2.6743 -98.5935 36.4970 -0.4875 1.2396 -176.8998 0.0346 -0.7728 -0.4762 0.1708 0.1791 -0.1041 0.8859 -0.4318 -1.1702 -0.1122 0.2712 -0.1542 -1.8947 0.0764 -1.5527 -0.7466 0.6929 -1.6763 1.2900 5.6580 -1.5576 -5.8591 -0.3421 0.6255 0.0000 0.0000 13.7326 -11.6082 22.2525 -1.3241 0.0000 -0.0000 0.0000 -0.0000 -0.0000 -0.0000 2.0114 -8.4604 1.1797 -8.0165 1.1004 6.0023 -0.0000 -0.0000 -17.7218 -8.9312 -21.7998 -2.2797 -0.0000 -0.0000 0.0000 -0.0000 -0.0000 0.0000 -5.1473 2.3467 -24.5354 15.8551 0.0000 0.0000 -14.4869 2.1849 2.7718 0.0395 0.0000 0.0000 -4.5680 -5.6690 15.1398 13.0629 0.0000 0.0000 -8.2780 7.0743 0.2800 0.5340 0.0000 0.0000
 2.6499 -98.5864 36.4982 -0.4659 1.2142 -176.8997 0.0306 -0.8023 -0.4742 0.1675 0.1681 -0.1041 0.8825 -0.4270 -1.1349 -0.1137 0.2699 -0.1501 -1.9241 0.1149 -1.5395 -0.7207 0.6941 -1.6944 1.2643 5.6465 -1.5592 -5.8271 -0.3238 0.6043 0.0000 0.0000 13.7203 -11.5828 22.2796 -1.3496 0.0000 -0.0000 -0.0000 -0.0000 -0.0000 -0.0000 2.0041 -8.4041 1.1601 -8.0619 1.1327 5.9347 -0.0000 -0.0000 -17.7664 -8.9084 -21.8382 -2.2963 0.0000 0.0000 -0.0000 0.0000 0.0000 0.0000 -5.0929 2.3560 -24.6021 15.8170 0.0000 0.0000 -14.4589 2.1538 2.8186 0.0313 0.0000 0.0000 -4.5379 -5.6571 15.0942 13.0745 0.0000 0.0000 -8.3237 7.0455 0.3055 0.5353 0.0000 0.0000
 2.6247 -98.5790 36.4995 -0.4400 1.1927 -176.9099 0.0303 -0.8280 -0.4700 0.1647 0.1597 -0.1064 0.8820 -0.4238 -1.0973 -0.1144 0.2682 -0.1465 -1.9552 0.1515 -1.5206 -0.6980 0.6942 -1.7044 1.2452 5.6386 -1.5559 -5.7956 -0.3094 0.5916 0.0000 0.0000 13.7000 -11.5667 22.2992 -1.3728 -0.0000 -0.0000 -0.0000 0.0000 -0.0000 -0.0000 2.0018 -8.3482 1.1471 -8.1081 1.1691 5.8743 -0.0000 -0.0000 -17.8209 -8.8797 -21.8757 -2.3113 0.0000 -0.0000 -0.0000 0.0000 0.0000 0.0000 -5.0392 2.3707 -24.6584 15.7888 0.0000 0.0000 -14.4326 2.1223 2.8621 0.0175 0.0000 0.0000 -4.4971 -5.6428 15.0738 13.0800 0.0000 0.0000 -8.3658 7.0222 0.3163 0.5344 0.0000 0.0000
 2.5996 -98.5716 36.5007 -0.4143 1.1744 -176.9272 0.0294 -0.8480 -0.4696 0.1620 0.1511 -0.1039 0.8861 -0.4192 -1.0657 -0.1148 0.2647 -0.1412 -1.9872 0.1841 -1.4970 -0.6804 0.6932 -1.7055 1.2333 5.6340 -1.5457 -5.7625 -0.2991 0.5866 0.0000 0.0000 13.6718 -11.5593 22.3105 -1.3928 -0.0000 0.0000 -0.0000 -0.0000 -0.0000 0.0000 2.0026 -8.2949 1.1380 -8.1530 1.2089 5.8287 -0.0000 -0.0000 -17.8863 -8.8423 -21.9089 -2.3221 -0.0000 0.0000 0.0000 -0.0000 -0.0000 0.0000 -4.9913 2.3895 -24.7036 15.7707 0.0000 0.0000 -14.4086 2.0913 2.8997 0.0015 0.0000 0.0000 -4.4532 -5.6269 15.0726 13.0827 0.0000 0.0000 -8.4049 7.0051 0.3157 0.5320 0.0000 0.0000
 2.5750 -98.5645 36.5019 -0.3885 1.1586 -176.9517 0.0292 -0.8645 -0.4693 0.1598 0.1443 -0.1012 0.8932 -0.4138 -1.0369 -0.1140 0.2607 -0.1366 -2.0205 0.2106 -1.4706 -0.6684 0.6909 -1.6971 1.2301 5.6326 -1.5300 -5.7295 -0.2946 0.5901 0.0000 0.0000 13.6383 -11.5582 22.3137 -1.4104 0.0000 0.0000 -0.0000 0.0000 -0.0000 -0.0000 2.0103 -8.2449 1.1381 -8.1900 1.2496 5.7896 -0.0000 -0.0000 -17.9534 -8.8030 -21.9376 -2.3327 -0.0000 0.0000 0.0000 0.0000 0.0000 0.0000 -4.9486 2.4102 -24.7358 15.7610 0.0000 0.0000 -14.3867 2.0617 2.9302 -0.0164 0.0000 -0.0000 -4.4068 -5.6121 15.0956 13.0838 0.0000 0.0000 -8.4404 6.9943 0.2993 0.5283 0.0000 0.0000
 2.5512 -98.5576 36.5029 -0.3645 1.1465 -176.9820 0.0282 -0.8756 -0.4687 0.1581 0.1399 -0.1002 0.9042 -0.4084 -1.0113 -0.1126 0.2568 -0.1333 -2.0541 0.2296 -1.4426 -0.6630 0.6877 -1.6798 1.2360 5.6353 -1.5099 -5.6941 -0.2971 0.6048 0.0000 0.0000 13.5975 -11.5647 22.3104 -1.4239 0.0000 -0.0000 0.0000 -0.0000 -0.0000 0.0000 2.0223 -8.2014 1.1430 -8.2174 1.2922 5.7642 -0.0000 -0.0000 -18.0234 -8.7565 -21.9589 -2.3387 0.0000 0.0000 -0.0000 0.0000 -0.0000 -0.0000 -4.9139 2.4339 -24.7525 15.7607 0.0000 0.0000 -14.3682 2.0340 2.9512 -0.0342 0.0000 -0.0000 -4.3607 -5.5959 15.1348 13.0835 0.0000 0.0000 -8.4722 6.9891 0.2742 0.5225 0.0000 0.0000
 2.5283 -98.5507 36.5039 -0.3362 1.1402 -177.0156 0.0326 -0.8825 -0.4677 0.1579 0.1402 -0.1026 0.9171 -0.4018 -0.9870 -0.1104 0.2538 -0.1318 -2.0872 0.2395 -1.4166 -0.6628 0.6838 -1.6543 1.2512 5.6414 -1.4875 -5.6570 -0.3074 0.6295 0.0000 0.0000 13.5524 -11.5760 22.3000 -1.4343 0.0000 0.0000 0.0000 0.0000 -0.0000 0.0000 2.0390 -8.1682 1.1516 -8.2316 1.3378 5.7503 -0.0000 -0.0000 -18.0904 -8.7071 -21.9720 -2.3439 -0.0000 -0.0000 0.0000 0.0000 -0.0000 0.0000 -4.8783 2.4620 -24.7570 15.7668 0.0000 0.0000 -14.3542 2.0081 2.9647 -0.0504 0.0000 -0.0000 -4.3080 -5.5761 15.1853 13.0806 0.0000 0.0000 -8.4994 6.9883 0.2439 0.5158 0.0000 0.0000
 2.5064 -98.5442 36.5048 -0.3095 1.1397 -177.0503 0.0384 -0.8789 -0.4690 0.1560 0.1400 -0.1000 0.9331 -0.3968 -0.9728 -0.1076 0.2520 -0.1313 -2.1193 0.2428 -1.3910 -0.6680 0.6783 -1.6232 1.2747 5.6533 -1.4614 -5.6174 -0.3258 0.6616 0.0000 0.0000 13.5052 -11.5925 22.2839 -1.4415 -0.0000 0.0000 0.0000 -0.0000 -0.0000 0.0000 2.0595 -8.1413 1.1644 -8.2303 1.3831 5.7450 -0.0000 -0.0000 -18.1503 -8.6546 -21.9775 -2.3467 -0.0000 -0.0000 -0.0000 0.0000 -0.0000 -0.0000 -4.8488 2.4951 -24.7503 15.7801 0.0000 0.0000 -14.3455 1.9842 2.9704 -0.0635 0.0000 -0.0000 -4.2577 -5.5519 15.2399 13.0780 0.0000 0.0000 -8.5229 6.9900 0.2134 0.5077 0.0000 0.0000
 2.4854 -98.5378 36.5055 -0.2823 1.1426 -177.0841 0.0462 -0.8732 -0.4697 0.1555 0.1427 -0.0996 0.9497 -0.3884 -0.9631 -0.1042 0.2509 -0.1320 -2.1497 0.2377 -1.3699 -0.6769 0.6727 -1.5880 1.3049 5.6679 -1.4350 -5.5760 -0.3512 0.7005 0.0000 0.0000 13.4583 -11.6088 22.2631 -1.4469 -0.0000 0.0000 -0.0000 -0.0000 0.0000 0.0000 2.0839 -8.1244 1.1795 -8.2121 1.4301 5.7441 -0.0000 -0.0000 -18.1976 -8.6054 -21.9760 -2.3490 0.0000 -0.0000 -0.0000 0.0000 0.0000 0.0000 -4.8208 2.5300 -24.7348 15.7961 0.0000 0.0000 -14.3407 1.9617 2.9694 -0.0722 0.0000 -0.0000 -4.2085 -5.5253 15.2938 13.0774 0.0000 0.0000 -8.5446 6.9919 0.1858 0.4994 0.0000 0.0000
 2.4651 -98.5318 36.5060 -0.2584 1.1486 -177.1154 0.0527 -0.8621 -0.4714 0.1551 0.1438 -0.0992 0.9665 -0.3762 -0.9578 -0.1002 0.2500 -0.1343 -2.1782 0.2275 -1.3524 -0.6883 0.6657 -1.5514 1.3404 5.6869 -1.4095 -5.5331 -0.3838 0.7448 0.0000 0.0000 13.4133 -11.6263 22.2394 -1.4500 0.0000 -0.0000 -0.0000 0.0000 0.0000 0.0000 2.1105 -8.1159 1.1959 -8.1793 1.4788 5.7455 -0.0000 -0.0000 -18.2306 -8.5564 -21.9688 -2.3501 0.0000 0.0000 0.0000 0.0000 0.0000 0.0000 -4.7986 2.5669 -24.7091 15.8149 0.0000 0.0000 -14.3398 1.9409 2.9587 -0.0757 0.0000 -0.0000 -4.1662 -5.4958 15.3407 13.0807 0.0000 0.0000 -8.5656 6.9919 0.1655 0.4904 0.0000 0.0000
 2.4453 -98.5258 36.5063 -0.2351 1.1591 -177.1436 0.0610 -0.8456 -0.4727 0.1547 0.1453 -0.0986 0.9828 -0.3640 -0.9569 -0.0961 0.2514 -0.1378 -2.2034 0.2135 -1.3401 -0.7001 0.6583 -1.5160 1.3796 5.7092 -1.3857 -5.4897 -0.4214 0.7913 0.0000 0.0000 13.3731 -11.6433 22.2127 -1.4521 0.0000 0.0000 0.0000 -0.0000 -0.0000 -0.0000 2.1376 -8.1151 1.2109 -8.1308 1.5291 5.7465 -0.0000 -0.0000 -18.2462 -8.5163 -21.9578 -2.3534 0.0000 -0.0000 -0.0000 -0.0000 0.0000 0.0000 -4.7780 2.6079 -24.6788 15.8358 0.0000 0.0000 -14.3437 1.9206 2.9434 -0.0739 0.0000 -0.0000 -4.1269 -5.4609 15.3771 13.0869 0.0000 0.0000 -8.5861 6.9883 0.1556 0.4817 0.0000 0.0000
 2.4257 -98.5200 36.5065 -0.2130 1.1718 -177.1677 0.0700 -0.8262 -0.4737 0.1545 0.1464 -0.0983 0.9974 -0.3497 -0.9585 -0.0918 0.2539 -0.1424 -2.2252 0.1978 -1.3325 -0.7108 0.6506 -1.4837 1.4206 5.7350 -1.3653 -5.4470 -0.4634 0.8391 0.0000 0.0000 13.3392 -11.6592 22.1841 -1.4538 -0.0000 0.0000 -0.0000 0.0000 -0.0000 0.0000 2.1639 -8.1215 1.2232 -8.0703 1.5820 5.7453 -0.0000 -0.0000 -18.2442 -8.4836 -21.9454 -2.3574 0.0000 -0.0000 -0.0000 0.0000 0.0000 0.0000 -4.7594 2.6511 -24.6453 15.8580 0.0000 0.0000 -14.3511 1.9003 2.9237 -0.0675 0.0000 -0.0000 -4.0925 -5.4226 15.4006 13.0976 0.0000 0.0000 -8.6076 6.9801 0.1573 0.4725 0.0000 0.0000
